<?xml version="1.0" encoding="utf-8"?>
<!-- Generator: Adobe Illustrator 16.0.0, SVG Export Plug-In . SVG Version: 6.00 Build 0)  -->
<!DOCTYPE svg PUBLIC "-//W3C//DTD SVG 1.1//EN" "http://www.w3.org/Graphics/SVG/1.1/DTD/svg11.dtd">
<svg version="1.1" id="Layer_2" xmlns="http://www.w3.org/2000/svg" xmlns:xlink="http://www.w3.org/1999/xlink" x="0px" y="0px"
	 width="276px" height="127.996px" viewBox="-16.766 0 276 127.996" enable-background="new -16.766 0 276 127.996"
	 xml:space="preserve">
<path fill="#ED1E26" d="M79.006,63.913c7.01,15.561,22.64,26.4,40.82,26.4c0.063,0,0.125,0,0.188,0
	c18.259-0.076,33.935-11.094,40.821-26.84c11.69-10.291,72.392-14.541,74.19-14.67c1.149-0.086,1.868-0.801,2.161-1.68
	c0.496-1.488-0.229-3.447-2.143-3.611c-1.77-0.14-60.26-4.22-73.488-14.1c-6.469-16.699-22.662-28.557-41.626-28.6
	c-0.035,0-0.069,0-0.104,0c-18.9,0-35.05,11.72-41.61,28.28c-12.37,10.11-72.11,14.27-73.89,14.419
	c-1.965,0.168-2.681,2.219-2.112,3.719c0.314,0.83,1.02,1.49,2.123,1.572C6.167,48.932,68.586,53.303,79.006,63.913z"/>
<path fill="#F9F7F7" d="M119.678,9.878c-19.422,0-35.167,15.745-35.167,35.167s15.745,35.166,35.167,35.166
	c19.422,0,35.167-15.744,35.167-35.166S139.1,9.878,119.678,9.878z M119.678,75.356c-16.74,0-30.311-13.57-30.311-30.313
	c0-16.74,13.571-30.309,30.311-30.309s30.311,13.571,30.311,30.311C149.988,61.786,136.418,75.356,119.678,75.356z"/>
<path fill="#F9F7F7" d="M125.617,25.704H113.79l-12.934,34.33h9.09l2.406-6.777h14.702l2.405,6.775h9.09L125.617,25.704z
	 M114.189,47.977l5.514-15.495l5.512,15.495H114.189z"/>
<g>
	<path d="M-5.118,108.559l-9.402,18.793h8.903l1.333-2.972h7.395l1.282,2.972h9.059L4.05,108.559H-5.118z M-2.476,120.181
		c0.727-1.783,1.342-3.554,1.838-5.289c0.486,1.701,1.109,3.472,1.864,5.289H-2.476z"/>
	<path d="M29.72,121.441c0,0.463-0.208,0.807-0.654,1.079c-0.513,0.314-1.242,0.474-2.165,0.474c-0.896,0-1.606-0.149-2.112-0.445
		c-0.566-0.33-0.632-0.707-0.632-0.961v-13.028h-8.82v11.549c0,2.787,0.913,4.807,2.713,6.002c1.76,1.168,4.655,1.735,8.851,1.735
		c2.783,0,4.991-0.233,6.565-0.693c1.625-0.476,2.879-1.241,3.728-2.274c0.86-1.048,1.296-2.441,1.296-4.143v-12.176h-8.77V121.441z
		"/>
	<polygon points="41.865,113.625 47.07,113.625 47.07,127.352 55.79,127.352 55.79,113.625 61.045,113.625 61.045,108.559 
		41.865,108.559 	"/>
	<path d="M85.073,110.579c-2.233-1.667-5.477-2.513-9.641-2.513c-3.915,0-7.023,0.843-9.24,2.506
		c-2.26,1.696-3.406,4.088-3.406,7.11c0,3.258,1.14,5.793,3.387,7.533c2.208,1.709,5.433,2.576,9.585,2.576
		c4.019,0,7.172-0.867,9.373-2.577c2.238-1.74,3.374-4.212,3.374-7.346C88.505,114.732,87.35,112.279,85.073,110.579z
		 M78.366,121.788c-0.662,0.641-1.649,0.966-2.934,0.966c-1.192,0-2.065-0.311-2.667-0.949c-0.414-0.438-0.907-1.501-0.907-4.068
		c0-4.15,2.068-4.631,3.624-4.631c2.644,0,3.875,1.497,3.875,4.711C79.358,119.815,79.024,121.151,78.366,121.788z"/>
	<path d="M112.023,108.559l-1.604,4.322c-0.386,1.021-0.753,2.09-1.093,3.179l-0.346,1.149c-0.731-2.414-1.663-5.203-2.778-8.319
		l-0.119-0.331H95.693l-3.824,18.793h8.255l1.744-10.901l4.382,10.901h5.836l4.167-10.843l1.806,10.843h8.586l-4.037-18.793H112.023
		z"/>
	<path d="M152.287,110.579c-2.232-1.667-5.477-2.513-9.641-2.513c-3.915,0-7.023,0.843-9.239,2.506
		c-2.261,1.697-3.407,4.089-3.407,7.11c0,3.259,1.141,5.793,3.389,7.533c2.206,1.709,5.431,2.576,9.584,2.576
		c4.02,0,7.173-0.867,9.373-2.577c2.238-1.741,3.373-4.212,3.373-7.346C155.719,114.731,154.564,112.278,152.287,110.579z
		 M145.58,121.788c-0.663,0.641-1.65,0.966-2.934,0.966c-1.192,0-2.063-0.311-2.666-0.95c-0.414-0.438-0.908-1.499-0.908-4.067
		c0-4.15,2.068-4.631,3.625-4.631c2.644,0,3.875,1.497,3.875,4.711C146.572,119.816,146.238,121.152,145.58,121.788z"/>
	<path d="M178.619,117.726c2.126-0.961,3.201-2.195,3.201-3.682c0-1.652-1.095-3.008-3.253-4.031
		c-2.065-0.979-5.318-1.454-9.944-1.454h-8.246v18.793h10.459c3.377,0,6.146-0.491,8.232-1.46c2.211-1.026,3.332-2.43,3.332-4.171
		C182.4,119.882,181.13,118.542,178.619,117.726z M168.996,112.98c1.459,0.039,2.541,0.179,3.22,0.416
		c0.785,0.275,0.886,0.697,0.886,1.034c0,0.789-1.488,1.28-4.105,1.368V112.98z M172.687,122.436
		c-0.826,0.256-2.066,0.404-3.69,0.442v-2.844h0.129c3.003,0,4.656,0.499,4.656,1.406
		C173.781,121.621,173.781,122.098,172.687,122.436z"/>
	<polygon points="195.248,108.559 186.629,108.559 186.629,127.352 201.283,127.352 201.283,122.234 195.248,122.234 	"/>
	<path d="M225.738,110.579c-2.232-1.667-5.477-2.513-9.641-2.513c-3.915,0-7.023,0.843-9.239,2.506
		c-2.261,1.697-3.407,4.089-3.407,7.11c0,3.259,1.141,5.793,3.389,7.533c2.206,1.709,5.431,2.576,9.584,2.576
		c4.02,0,7.173-0.867,9.373-2.577c2.238-1.741,3.373-4.212,3.373-7.346C229.17,114.731,228.016,112.278,225.738,110.579z
		 M219.031,121.788c-0.663,0.641-1.65,0.966-2.934,0.966c-1.192,0-2.063-0.311-2.666-0.95c-0.414-0.438-0.908-1.499-0.908-4.067
		c0-4.15,2.068-4.631,3.625-4.631c2.644,0,3.875,1.497,3.875,4.711C220.023,119.816,219.689,121.152,219.031,121.788z"/>
	<path d="M248.407,117.551l8.256-8.992h-9.836l-2.711,3.633c-0.268,0.347-0.465,0.609-0.61,0.813c-0.437-0.63-1.329-1.837-3.2-4.252
		l-0.15-0.193h-9.815l8.12,9.045l-8.721,9.748h9.677l3.24-3.896c0.317-0.378,0.599-0.764,0.839-1.152
		c0.486,0.652,1.535,1.995,3.846,4.862l0.15,0.187h9.818L248.407,117.551z"/>
</g>
</svg>
